# xmcd
#
# Track frame offsets: 
#        150
#        12268
#        19965
#        33015
#        45637
#        54741
#        66102
#        78593
#        88871
#
# Disc length: 1318 seconds
#
# Revision: 1
# Processed by: cddbd v1.5.2PL0 Copyright (c) Steve Scherf et al.
# Submitted via: ExactAudioCopyFreeDBPlugin 1.0
#
DISCID=6d052409
DTITLE=Dag Nasty - Dag With Shawn
DYEAR=2010
DGENRE=Hardcore
TTITLE0=Under Your Influence
TTITLE1=I've Heard
TTITLE2=Justification
TTITLE3=Circles
TTITLE4=Can I Say
TTITLE5=Thin Line (Ragu)
TTITLE6=Never Go Back
TTITLE7=Another Wrong
TTITLE8=One To Two
EXTD=
EXTT0=
EXTT1=
EXTT2=
EXTT3=
EXTT4=
EXTT5=
EXTT6=
EXTT7=
EXTT8=
PLAYORDER=
